<?xml version="1.0" encoding="utf-8"?>
<!-- Generator: Adobe Illustrator 27.4.1, SVG Export Plug-In . SVG Version: 6.00 Build 0)  -->
<svg version="1.1" id="Calque_1" xmlns="http://www.w3.org/2000/svg" xmlns:xlink="http://www.w3.org/1999/xlink" x="0px" y="0px"
	 viewBox="0 0 16 16" style="enable-background:new 0 0 16 16;" xml:space="preserve">
<style type="text/css">
	.st0{fill:#343638;}
</style>
<path id="menu_icon-2" class="st0" d="M1,15c-0.6,0-1-0.4-1-1s0.4-1,1-1h14c0.6,0,1,0.4,1,1s-0.4,1-1,1H1z M1,9C0.4,9,0,8.6,0,8
	s0.4-1,1-1h8c0.6,0,1,0.4,1,1S9.6,9,9,9H1z M1,3C0.4,3,0,2.6,0,2s0.4-1,1-1h14c0.6,0,1,0.4,1,1s-0.4,1-1,1H1z"/>
</svg>
